<svg version="1.1" xmlns="http://www.w3.org/2000/svg" style="display: block;" viewBox="0 0 2048 2048" width="1024" height="1024" preserveAspectRatio="none"><path transform="translate(0,0)" fill="rgb(95, 237, 131)" d="M 863.013 59.8712 C 875.94 73.0942 889.526 85.746 902.258 99.2101 C 1039.92 244.795 1141.48 439.003 1140.91 642.848 C 1140.57 766.492 1106.88 872.59 1045.25 978.16 C 1034.02 997.297 1022.42 1016.21 1010.44 1034.88 C 1002.38 1047.4 992.431 1061.54 985.451 1074.37 C 1084.61 1036.93 1184.93 918.05 1226.68 822.862 C 1248.92 772.15 1261.68 716.618 1267.96 661.567 C 1270.17 642.24 1270.8 619.8 1273.17 601.677 C 1282.53 612.097 1303.19 648.76 1311.3 662.329 L 1358.17 739.962 C 1370.9 761.275 1384.35 784.821 1397.79 805.349 C 1391.01 814.892 1366.19 839.925 1357.02 849.878 L 1270.08 944.828 L 1082.87 1147.37 C 1059.29 1172.49 1026.91 1209.83 1002.8 1232.56 C 987.627 1222.8 971.278 1210.68 956.447 1200.17 L 887.802 1151.38 C 887.439 1004.86 701.534 958.676 607.46 1053.8 C 584.21 1077.3 568.76 1109.25 564.546 1141.98 C 563.361 1151.91 563.855 1167.89 563.905 1178.52 C 499.985 1250.53 433.872 1321.25 369.991 1393.57 L 275.177 1500.41 C 262.073 1515.14 244.088 1537.16 230.735 1550.46 C 195.619 1501.17 159.596 1386.01 156.718 1325.3 C 154.124 1305.74 152.212 1237.46 154.78 1217.89 C 170.593 1029.44 249.574 897.44 381.877 765.459 C 450.694 696.809 522.14 629.79 583.206 554.116 C 596.957 537.075 609.969 515.757 623.87 499.92 C 621.331 512.2 619.524 524.401 616.401 536.538 C 603.05 588.434 580.838 641.444 554.261 687.887 C 471.006 833.379 335.186 971.299 346.765 1151.15 C 347.314 1159.68 348.102 1168.25 349.083 1176.77 C 361.386 1133.52 389.556 1080.83 411.728 1041.26 C 459.561 955.876 517.258 870.695 576.518 792.854 C 632.889 718.807 700.078 653.216 754.367 577.387 C 844.177 454.13 896.562 300.685 880.719 147.382 C 877.506 116.295 871.098 89.9455 863.013 59.8712 z"/><path transform="translate(0,0)" fill="rgb(95, 237, 131)" d="M 1543.07 1008.68 C 1548.42 1011.62 1567.96 1079.54 1572.58 1091.83 C 1547.86 1118.43 1518.71 1147.98 1493.1 1173.7 C 1501.99 1194.8 1510.12 1218.04 1518 1239.62 C 1552.58 1245.65 1587.22 1251.27 1621.92 1256.49 C 1622.2 1301.55 1622.21 1343.05 1623.75 1388.25 C 1600.33 1394.3 1576.56 1399.29 1553.05 1404.91 C 1540.95 1407.8 1526.94 1410.48 1515.25 1414.22 C 1505.47 1442.96 1494.96 1471.65 1485.54 1500.49 C 1501.92 1516.44 1523.63 1530.8 1540.92 1546.04 C 1551.74 1555.59 1565.2 1564.28 1575.16 1574.66 C 1567.14 1590.52 1522.14 1679.6 1514.2 1687.59 C 1507.56 1687.6 1421.76 1651.33 1407.51 1645.62 C 1400.78 1651.43 1388.78 1664.34 1382.06 1671.09 C 1366.18 1687.27 1349.73 1702.89 1332.74 1717.91 C 1338.94 1728.89 1346.2 1746.52 1351.47 1758.29 L 1380.74 1822.9 L 1301.9 1865.65 C 1285.55 1874.52 1267.78 1884.88 1251.25 1892.84 C 1242.16 1883.2 1233.21 1870.92 1224.95 1860.36 L 1183.95 1807.94 C 1152.31 1817.43 1116.86 1824.06 1084.69 1832.73 C 1078.34 1857.94 1072.19 1883.2 1066.23 1908.5 C 1064.24 1916.93 1059.77 1939.43 1057.24 1946.11 C 1014.17 1947.15 966.726 1946.75 923.835 1945.99 C 920.597 1935.49 917.071 1918.49 914.414 1907.36 C 907.835 1880.17 901.568 1852.92 895.614 1825.59 C 864.456 1816.47 828.968 1810.88 797.508 1800.85 C 771.262 1827.93 746.067 1861.17 720.062 1889.23 C 709.481 1884.34 695.981 1874.97 686.237 1868.22 C 659.249 1851.59 631.813 1833.53 604.839 1816.56 C 620.173 1781.96 633.54 1747.35 649.751 1712.59 C 624.542 1692.53 597.625 1661.98 572.946 1639.67 C 546.051 1649.66 517.606 1657.68 490.391 1666.89 C 483.729 1669.14 476.429 1671.32 469.553 1672.8 C 465.535 1664.94 459.105 1654.77 454.435 1647 C 459.358 1641.22 464.819 1634.98 470.025 1629.49 C 520.588 1576.17 567.33 1516.38 618.544 1463.91 C 623.021 1471.22 628.558 1484.15 632.511 1492.43 C 638.354 1504.55 644.653 1516.45 651.395 1528.1 C 692.551 1597.95 753.966 1653.65 827.498 1687.8 C 1021.91 1780.35 1264.17 1704.66 1358.57 1507.61 C 1403.96 1412.88 1413.37 1289.38 1377.63 1189.98 C 1383.92 1181.85 1399.12 1166.43 1406.74 1158.11 L 1463.97 1095.1 L 1511.91 1041.98 C 1520.03 1032.92 1534.25 1016.25 1543.07 1008.68 z"/><path transform="translate(0,0)" fill="rgb(95, 237, 131)" d="M 1850.61 508.013 C 1853.52 508.046 1852.43 507.465 1854.26 509.181 C 1854.58 514.548 1853.47 517.166 1852.54 522.269 C 1836.14 611.919 1818.55 701.379 1802.22 791.042 C 1801.64 794.259 1801.07 796.35 1799.55 799.25 C 1796.63 797.958 1777.65 782.07 1773.51 778.776 C 1751.41 761.148 1729.2 743.647 1706.9 726.274 C 1698.56 736.971 1688.09 747.812 1678.82 757.934 L 1635.4 805.26 L 1499.18 952.832 L 1286.02 1184.19 C 1229.95 1245.23 1170.65 1310.84 1113.25 1370.29 C 1116.94 1413.75 1112.23 1445.44 1075.48 1475 C 1053.53 1491.54 1022.55 1499.23 995.455 1495.05 C 926.942 1484.5 896.72 1431.44 905.002 1366.86 C 888.647 1355.95 873.509 1343.43 857.894 1331.51 C 828.239 1308.86 798.892 1285.04 768.85 1262.97 C 739.241 1272.83 725.739 1275.87 696.455 1265.77 C 587.074 1386.02 478.443 1506.95 370.571 1628.55 L 260.897 1750.54 C 246.219 1766.73 222.59 1794.45 207.439 1808.73 C 200.718 1802.7 191.914 1793 185.454 1786.3 C 173.53 1773.54 161.209 1760.99 149.79 1747.81 C 182.17 1715.98 216.319 1676.6 247.617 1643.02 L 511.555 1356.24 L 592.4 1268.23 C 609.749 1249.31 629.121 1227.4 647.184 1209.39 C 639.744 1189.72 637.133 1165.91 642.486 1145.4 C 648.494 1123 663.19 1103.93 683.313 1092.41 C 705.21 1079.95 731.123 1076.57 755.482 1083.01 C 803.027 1095.7 828.766 1144.51 815.687 1191.33 C 822.465 1195.7 830.408 1200.98 836.75 1205.87 C 881.024 1240.06 931.588 1271.2 974.775 1306.37 C 998.326 1297.07 1014.81 1297.29 1039.22 1303.75 C 1064.4 1273.46 1103.38 1234.45 1131.48 1204.65 L 1260.36 1065.81 L 1632.45 664.933 C 1613.32 646.893 1577.38 615.925 1561.21 597.262 C 1565.52 595.096 1570.12 593.862 1574.74 592.492 C 1599.84 585.046 1625.09 578.036 1650.13 570.393 L 1850.61 508.013 z"/></svg>